<?xml version="1.0" standalone="no"?>
<!DOCTYPE svg PUBLIC "-//W3C//DTD SVG 1.1//EN" "http://www.w3.org/Graphics/SVG/1.1/DTD/svg11.dtd" >
<svg>
<metadata>
Created by FontForge 20090914 at Tue May 15 04:59:40 2012
 By www-data
</metadata>
<defs>
<font id="FoundationIconsGeneral-Reg" horiz-adv-x="1000" >
  <font-face 
    font-family="Foundation Icons General"
    font-weight="400"
    font-stretch="normal"
    units-per-em="1000"
    panose-1="0 0 0 0 0 0 0 0 0 0"
    ascent="1000"
    descent="0"
    bbox="0 0 1000 1000"
    underline-thickness="50"
    underline-position="-50"
    unicode-range="U+000D-U+F02E"
  />
<missing-glyph horiz-adv-x="250" 
 />
    <glyph glyph-name=".notdef" horiz-adv-x="250" 
 />
    <glyph glyph-name="NULL" horiz-adv-x="0" 
 />
    <glyph glyph-name="NULL" horiz-adv-x="0" 
 />
    <glyph glyph-name="nonmarkingreturn" unicode="&#xd;" horiz-adv-x="250" 
 />
    <glyph glyph-name="space" unicode=" " horiz-adv-x="250" 
 />
    <glyph glyph-name="asciitilde" unicode="~" 
 />
    <glyph glyph-name="Settings" unicode="&#xf000;" 
d="M1000 0v1000v-1000zM0 0h1000h-1000zM500 359c19.333 0 37.666 3.66699 54.999 11s32.333 17.333 45 30s22.667 27.667 30 45s11 35.666 11 54.999s-3.66699 37.666 -11 54.999s-17.333 32.333 -30 45s-27.667 22.667 -45 30s-35.666 11 -54.999 11
s-37.666 -3.66699 -54.999 -11s-32.333 -17.333 -45 -30s-22.667 -27.667 -30 -45s-11 -35.666 -11 -54.999s3.66699 -37.666 11 -54.999s17.333 -32.333 30 -45s27.667 -22.667 45 -30s35.666 -11 54.999 -11zM954 577c6.66699 -0.666992 12.167 -3.33398 16.5 -8.00098
s6.5 -10.334 6.5 -17.001v-104c0 -6.66699 -2.16699 -12.334 -6.5 -17.001s-9.83301 -7.33398 -16.5 -8.00098l-121 -12c-8 -28.667 -19.667 -56.334 -35 -83.001l77 -94c4.66699 -5.33301 6.83398 -11.166 6.50098 -17.499s-2.83301 -11.833 -7.5 -16.5l-74 -74
c-4.66699 -4.66699 -10.667 -7 -18 -7c-6 0 -11.333 2 -16 6l-94 77c-26.667 -15.333 -54.334 -27 -83.001 -35l-12 -121c-0.666992 -6.66699 -3.33398 -12.167 -8.00098 -16.5s-10.334 -6.5 -17.001 -6.5h-104c-6.66699 0 -12.334 2.16699 -17.001 6.5
s-7.33398 9.83301 -8.00098 16.5l-12 121c-28.667 8 -56.334 19.667 -83.001 35l-94 -77c-5.33301 -4 -10.666 -6 -15.999 -6c-7.33301 0 -13.333 2.33301 -18 7l-74 74c-4.66699 4.66699 -7.16699 10.167 -7.5 16.5s1.83398 12.166 6.50098 17.499l77 94
c-15.333 26.667 -27 54.334 -35 83.001l-121 12c-6.66699 0.666992 -12.167 3.33398 -16.5 8.00098s-6.5 10.334 -6.5 17.001v104c0 6.66699 2.16699 12.334 6.5 17.001s9.83301 7.33398 16.5 8.00098l121 12c8 28.667 19.667 56.334 35 83.001l-77 94
c-4.66699 5.33301 -6.83398 11.166 -6.50098 17.499s2.83301 11.833 7.5 16.5l74 74c4.66699 4.66699 10.667 7 18 7c5.33301 0 10.666 -2 15.999 -6l94 -77c26.667 15.333 54.334 27 83.001 35l12 121c0.666992 6.66699 3.33398 12.167 8.00098 16.5s10.334 6.5 17.001 6.5
h104c6.66699 0 12.334 -2.16699 17.001 -6.5s7.33398 -9.83301 8.00098 -16.5l12 -121c28.667 -8 56.334 -19.667 83.001 -35l94 77c4.66699 4 10 6 16 6c7.33301 0 13.333 -2.33301 18 -7l74 -74c4.66699 -4.66699 7.16699 -10.167 7.5 -16.5
s-1.83398 -12.166 -6.50098 -17.499l-77 -94c15.333 -26.667 27 -54.334 35 -83.001l121 -12v0z" />
    <glyph glyph-name="Heart" unicode="&#xf001;" 
d="M708 931c36 0 69.8301 -6.83301 101.497 -20.5s59.5 -32.5 83.5 -56.5s43 -52 57 -84s21 -66 21 -102c0 -39.333 -4.16699 -74.833 -12.5 -106.5s-19.166 -60.5 -32.499 -86.5s-28 -49.5 -44 -70.5l-47 -59.5l-13 -15c-12 -14.667 -27.667 -31 -47 -49l-62 -55
l-66.5 -54.5l-61.5 -47l-46.5 -34c-12.333 -9 -19.166 -14.167 -20.499 -15.5c-5.33301 -4 -11.333 -6 -18 -6c-7.33301 0 -13.333 2 -18 6c-2 1.33301 -9 6.5 -21 15.5l-46 34l-61.5 47l-66.5 54.5l-62 55c-19.333 18 -35 34.333 -47 49l-13 15l-47 59.5
c-16 21 -30.667 44.5 -44 70.5s-24.166 54.833 -32.499 86.5s-12.5 67.167 -12.5 106.5c0 36 7 70 21 102s33 60 57 84s51.833 42.833 83.5 56.5s65.5 20.5 101.5 20.5c42 0 81 -9.16699 117 -27.5s66.333 -43.5 91 -75.5c24.667 32 55 57.167 91 75.5s75 27.5 117 27.5z
" />
    <glyph glyph-name="Star" unicode="&#xf002;" 
d="M987 619c3.33301 -10.667 0.671875 -19.332 -7.99512 -25.999l-258 -204l116 -326c3.33301 -10.667 0.666016 -19.334 -8.00098 -26.001c-4 -4 -8.66699 -6 -14 -6c-4 0 -8 1.33301 -12 4l-303 181l-303 -181c-4 -2.66699 -8.5 -3.83398 -13.5 -3.50098
s-9.16699 2.16602 -12.5 5.49902c-8.66699 6.66699 -11.334 15.334 -8.00098 26.001l116 326l-258 204c-8.66699 6.66699 -11.334 15.334 -8.00098 26.001c4.66699 10.667 12 16 22 16h330l113 318c3.33301 10.667 10.666 16 21.999 16s18.666 -5.33301 21.999 -16l113 -318
h330c10 0 17.333 -5.33301 22 -16z" />
    <glyph glyph-name="Plus" unicode="&#xf003;" 
d="M945 633c6.66699 0 12.334 -2.33301 17.001 -7s7 -10.334 7 -17.001v-218c0 -6.66699 -2.33301 -12.334 -7 -17.001s-10.334 -7 -17.001 -7h-312v-312c0 -6.66699 -2.33301 -12.334 -7 -17.001s-10.334 -7 -17.001 -7h-218c-6.66699 0 -12.334 2.33301 -17.001 7
s-7 10.334 -7 17.001v312h-312c-6.66699 0 -12.334 2.33301 -17.001 7s-7 10.334 -7 17.001v218c0 6.66699 2.33301 12.334 7 17.001s10.334 7 17.001 7h312v312c0 6.66699 2.33301 12.334 7 17.001s10.334 7 17.001 7h218c6.66699 0 12.334 -2.33301 17.001 -7
s7 -10.334 7 -17.001v-312h312v0z" />
    <glyph glyph-name="Minus" unicode="&#xf004;" 
d="M945 633c6.66699 0 12.167 -2.33301 16.5 -7s6.5 -10.334 6.5 -17.001v-218c0 -6.66699 -2.16699 -12.334 -6.5 -17.001s-9.83301 -7 -16.5 -7h-890c-6.66699 0 -12.334 2.33301 -17.001 7s-7 10.334 -7 17.001v218c0 6.66699 2.33301 12.334 7 17.001s10.334 7 17.001 7
h890v0z" />
    <glyph glyph-name="Check" unicode="&#xf005;" 
d="M978 769c4.66699 -4.66699 7.00098 -10.167 7.00098 -16.5s-2.33301 -11.833 -7 -16.5l-630 -630c-4 -4.66699 -9.33301 -7 -16 -7h-1h-1c-6 0 -11.333 2.33301 -16 7l-292 291c-4.66699 6 -7 11.667 -7 17s2.33301 11 7 17l125 125c11.333 10 22.666 10 33.999 0
l150 -151l488 489c6 4.66699 11.667 7 17 7s11 -2.33301 17 -7l125 -125v0z" />
    <glyph glyph-name="Times" unicode="&#xf006;" 
d="M914 279c4.66699 -4.66699 6.99902 -10.167 6.99902 -16.5s-2.33301 -11.833 -7 -16.5l-155 -155c-4.66699 -4.66699 -10 -7 -16 -7c-5.33301 0 -11 2.33301 -17 7l-221 221l-221 -221c-4.66699 -4.66699 -10 -7 -16 -7c-5.33301 0 -11 2.33301 -17 7l-155 155
c-4 4 -6 9.66699 -6 17c0 6.66699 2 12 6 16l221 221l-220 221c-4.66699 4 -7 9.33301 -7 16c0 7.33301 2.33301 13 7 17l154 155c4.66699 4.66699 10.334 7 17.001 7s12 -2.33301 16 -7l221 -221l221 221c4.66699 4.66699 10.167 7 16.5 7s11.833 -2.33301 16.5 -7
l155 -155c4.66699 -4.66699 7 -10.167 7 -16.5s-2.33301 -11.833 -7 -16.5l-221 -221l221 -221v0z" />
    <glyph glyph-name="Mail" unicode="&#xf007;" 
d="M46 240c-0.666992 -1.33301 -2.33398 -1.99902 -5.00098 -1.99902h-3c-3.33301 2 -5 4.33301 -5 7v399c0 3.33301 1.33301 5.66602 4 6.99902c2.66699 0.666992 5.33398 0.666992 8.00098 0l266 -152c2.66699 -1.33301 4 -3.33301 4 -6c0 -3.33301 -1 -5.33301 -3 -6z
M940 130.001c2 -2.66699 2.66699 -5.33398 2 -8.00098c-2 -3.33301 -4.66699 -5 -8 -5h-870c-4.66699 0 -9.66699 1.66699 -15 5c-2.66699 1.33301 -4 3.33301 -4 6s1 4.66699 3 6l339 315c2.66699 2.66699 5.66699 3 9 1l90 -51c12.667 -7.33301 25.667 -7.33301 39 0
l102 60c4 2.66699 7 2.33398 9 -0.999023zM971 657.001c2.66699 -1.33301 4 -3.66797 4 -7.00098v-422c0 -3.33301 -1.66699 -5.66602 -5 -6.99902c-0.666992 -0.666992 -1.66699 -1 -3 -1c-2 0 -4 1 -6 3l-253 273c-2 2 -2.66699 4 -2 6c0 2.66699 1 4.66699 3 6l254 149
c2 2 4.66699 2 8 0zM943 882.999c9.33301 0 17 -3 23 -9s9 -13.333 9 -22v-96c0 -4.66699 -2.33301 -7 -7 -7c-4 -0.666992 -7.66699 -2.33398 -11 -5.00098l-448 -263c-0.666992 -0.666992 -2 -1 -4 -1s-3.33301 0.333008 -4 1l-462 263c-4 2.66699 -6 5.33398 -6 8.00098
v100c0 8.66699 3 16 9 22s13.333 9 22 9h879v0z" />
    <glyph glyph-name="Calendar" unicode="&#xf008;" 
d="M729 860c0 10.667 -2.5 18.334 -7.5 23.001s-13.833 7 -26.5 7c-12 0 -20.5 -2.33301 -25.5 -7s-7.5 -12.334 -7.5 -23.001v-117c0 -11.333 2.5 -19.166 7.5 -23.499s13.5 -6.5 25.5 -6.5c12.667 0 21.5 2.16699 26.5 6.5s7.5 12.166 7.5 23.499v117zM534 860
c0 20 -11.333 30.001 -34 30.001c-12 0 -20.5 -2.33301 -25.5 -7s-7.5 -12.334 -7.5 -23.001v-117c0 -11.333 2.5 -19.166 7.5 -23.499s13.5 -6.5 25.5 -6.5s20.667 2.16699 26 6.5s8 12.166 8 23.499v117zM339 860.001c0 10.667 -2.5 18.334 -7.5 23.001s-13.833 7 -26.5 7
c-12 0 -20.5 -2.33301 -25.5 -7s-7.5 -12.334 -7.5 -23.001v-117c0 -11.333 2.5 -19.166 7.5 -23.499s13.5 -6.5 25.5 -6.5c12.667 0 21.5 2.16699 26.5 6.5s7.5 12.166 7.5 23.499v117zM851 830.001c4 0 7.49707 -1.33301 10.4971 -4s4.5 -6 4.5 -10v-148
c0 -4 -1.5 -7.33301 -4.5 -10s-6.5 -4 -10.5 -4h-702c-4 0 -7.5 1.33301 -10.5 4s-4.5 6 -4.5 10v148c0 4 1.5 7.33301 4.5 10s6.5 4 10.5 4h69v30c0 25.333 7.83301 45.5 23.5 60.5s36.834 22.5 63.501 22.5c27.333 0 48.833 -7.5 64.5 -22.5s23.5 -35.167 23.5 -60.5v-30
h20v30c0 25.333 7.83301 45.5 23.5 60.5s36.834 22.5 63.501 22.5c27.333 0 48.833 -7.5 64.5 -22.5s23.5 -35.167 23.5 -60.5v-30h20v30c0 25.333 7.83301 45.5 23.5 60.5s36.834 22.5 63.501 22.5c27.333 0 48.833 -7.5 64.5 -22.5s23.5 -35.167 23.5 -60.5v-30h68v0z
M668.997 456.001c0 4.66699 -2.33301 6.99902 -7 6.99902h-30h-4l-86 -43c-2.66699 -1.33301 -4 -3.66602 -4 -6.99902l7 -50c0 -2 1.33301 -3.66699 4 -5c1.33301 -0.666992 3.33301 -1 6 -1l39 15v-197c0 -4.66699 2.66699 -7 8 -7h60c4.66699 0 7 2.33301 7 7v281z
M361.997 163c38.667 0 69.333 8.66602 92 25.999s34 41 34 71c0 20.667 -5.83301 36.334 -17.5 47.001s-24.5 18.667 -38.5 24c32 16 48 39 48 69c0 20 -9 36.333 -27 49s-42 19 -72 19c-34 0 -61.667 -5.33301 -83 -16c-2.66699 -0.666992 -4 -3 -4 -7l7 -50
c0 -2 1.33301 -3.66699 4 -5c2 -1.33301 4 -1.33301 6 0c20 9.33301 38.333 14 55 14s26.334 -2.33301 29.001 -7s4 -9 4 -13c0 -5.33301 -3 -11 -9 -17s-21 -10 -45 -12c-4.66699 0 -7 -2.33301 -7 -7v-49c0 -4.66699 2.33301 -7 7 -7c28 -2 46 -5.83301 54 -11.5
s12 -13.834 12 -24.501c0 -8.66699 -3.83301 -15.667 -11.5 -21s-17.834 -8 -30.501 -8s-24 0.833008 -34 2.5s-20.667 4.83398 -32 9.50098c-2 0.666992 -4.33301 0.333984 -7 -0.999023c-2 -1.33301 -3 -3 -3 -5l-7 -49c0 -4.66699 1.66699 -7.33398 5 -8.00098
c10 -4 21.333 -7.16699 34 -9.5s25 -3.5 37 -3.5zM850.996 589.999c4 0 7.5 -1.5 10.5 -4.5s4.5 -6.5 4.5 -10.5v-504c0 -4 -1.5 -7.33301 -4.5 -10s-6.5 -4 -10.5 -4h-702c-4 0 -7.5 1.33301 -10.5 4s-4.5 6 -4.5 10v504c0 4 1.5 7.5 4.5 10.5s6.5 4.5 10.5 4.5h702v0z" />
    <glyph glyph-name="Page" unicode="&#xf009;" 
d="M765 930c6.66699 0 12.334 -2.16699 17.001 -6.5s7 -10.166 7 -17.499v-823c0 -6.66699 -2.33301 -12.334 -7 -17.001s-10.334 -7 -17.001 -7h-567c-7.33301 0 -13.333 2.33301 -18 7s-7 10.334 -7 17.001v539c0 6.66699 2.33301 12.334 7 17.001s10.667 7 18 7h228
c9.33301 0 17.166 3.16699 23.499 9.5s9.5 14.166 9.5 23.499v227c0 7.33301 2.33301 13.166 7 17.499s10.334 6.5 17.001 6.5h282v0zM177 717c-5.33301 0 -8 2.66699 -8 8v42c0 2 1 4 3 6l160 157c2 2 4 3 6 3h40c5.33301 0 8 -3 8 -9v-199c0 -5.33301 -2.66699 -8 -8 -8
h-201z" />
    <glyph glyph-name="Wrench" unicode="&#xf00a;" 
d="M184 179c9.33301 -9.33301 20.166 -14 32.499 -14s23.166 4.66699 32.499 14s14 20.166 14 32.499s-4.66699 23.166 -14 32.499s-20.166 14 -32.499 14s-23.166 -4.66699 -32.499 -14s-14 -20.166 -14 -32.499s4.66699 -23.166 14 -32.499zM852 516
c-25.333 -26 -53.8379 -45.9961 -85.5049 -59.9961s-63.5 -21 -95.5 -21c-21.333 0 -43.333 5 -66 15l-269 -306c-1.33301 -2 -5 -6.83301 -11 -14.5s-13.833 -15.834 -23.5 -24.501s-21 -16.834 -34 -24.501s-27.5 -12.5 -43.5 -14.5
c-37.333 -5.33301 -73.333 8.66699 -108 42l-1 1h-1c0 0.666992 -0.166992 1 -0.5 1s-0.5 0.333008 -0.5 1c-32.667 35.333 -46.667 71.333 -42 108c2 16 6.83301 30.5 14.5 43.5s15.834 24.333 24.501 34s16.834 17.5 24.501 23.5s12.5 9.66699 14.5 11l306 269
c-10 22.667 -15 44.667 -15 66c0 32 7 63.833 21 95.5s34 60.167 60 85.5c25.333 25.333 53.333 44.666 84 57.999s61.667 19.666 93 18.999c3.33301 0 6 -0.666992 8 -2s6 -5 12 -11l13 -13c6.66699 -7.33301 6.66699 -14.333 0 -21l-31 -31l-33 -33
c-8 -8 -13.667 -14.833 -17 -20.5s-5.16602 -11 -5.49902 -16s-0.5 -11.833 -0.5 -20.5v-13c0 -9.33301 3.16699 -20 9.5 -32s15.5 -24 27.5 -36c11.333 -11.333 23 -20.166 35 -26.499s22.667 -9.5 32 -9.5h13c8.66699 0 15.5 0.166992 20.5 0.5s10.333 2.16602 16 5.49902
s12.5 9 20.5 17l33 33l31 31c6.66699 6.66699 13.667 6.66699 21 0l13 -13c6 -6 9.66699 -10 11 -12s2 -4.66699 2 -8c0.666992 -31.333 -5.66602 -62.333 -18.999 -93s-32.666 -58.667 -57.999 -84z" />
    <glyph glyph-name="Globe" unicode="&#xf00b;" 
d="M768 251c32 34 56.167 72.166 72.5 114.499s25.166 86.166 26.499 131.499l-36 -22c-4.66699 0.666992 -8.66699 1 -12 1c-7.33301 0 -11 -2.33301 -11 -7l15 -6c2.66699 -1.33301 4.33398 -2.66602 5.00098 -3.99902c2 -6 0.666992 -13 -4 -21l-8 -12
c-2 -2.66699 -4 -5 -6 -7l-7 -7l-7 -7c0 -2 -0.166992 -4.16699 -0.5 -6.5s-0.5 -4.83301 -0.5 -7.5c0 -5.33301 -1.16699 -11.166 -3.5 -17.499s-5.16602 -12.833 -8.49902 -19.5v-13c-1.33301 -4.66699 -2.83301 -8.83398 -4.5 -12.501s-3.16699 -7.5 -4.5 -11.5
c-1.33301 -3.33301 -2.83301 -6.66602 -4.5 -9.99902s-2.83398 -7 -3.50098 -11c-2 -17.333 -9.66699 -33.333 -23 -48c-18 -18 -33 -26 -45 -24c-6 1.33301 -10.5 5 -13.5 11s-5.16699 11.667 -6.5 17c-0.666992 0.666992 -1 2 -1 4l-4 8
c-1.33301 2.66699 -2.66602 5.66699 -3.99902 9l-10 24.5c-3.33301 8.33301 -4.33301 17.166 -3 26.499c0 1.33301 0.166992 3 0.5 5s0.5 4 0.5 6c1.33301 7.33301 2.16602 14.5 2.49902 21.5s-1.16699 14.167 -4.5 21.5l-3 6c-2.66699 5.33301 -4.5 10.333 -5.5 15
s0.166992 11 3.5 19c0 0.666992 -2.83301 1.66699 -8.5 3s-15.5 2 -29.5 2h-8h-3c-28.667 0 -46.667 17.333 -54 52c-4 22 0.333008 43 13 63c0.666992 1.33301 1 3 1 5c0 4.66699 0.333008 8 1 10c3.33301 0.666992 5.83301 1.83398 7.5 3.50098s3.16699 3.5 4.5 5.5l4 8
c7.33301 0.666992 16 1.83398 26 3.50098s20.333 3 31 4s20.5 1.33301 29.5 1s16.167 -1.83301 21.5 -4.5c4.66699 -3.33301 9.33398 -6.33301 14.001 -9c9.33301 -6 17.333 -10 24 -12l28 19c-6 10.667 -11.667 18.667 -17 24s-9.66602 9.33301 -12.999 12
c-4 2.66699 -7.66699 4.33398 -11 5.00098c-4 -0.666992 -7.66699 -1.66699 -11 -3c-6.66699 -2 -13 -6.66699 -19 -14l-66 6c-3.33301 -3.33301 -7.33301 -5.5 -12 -6.5l-12 -2.5c-4.66699 -0.666992 -9 -1 -13 -1c-1.33301 6.66699 -3 12.334 -5 17.001
c-4 8 -6.16699 14.167 -6.5 18.5s0.5 7.83301 2.5 10.5s4.5 5 7.5 7s5.5 5 7.5 9s3.16699 8 3.5 12s1 9 2 15s3 13.167 6 21.5s8.16699 18.5 15.5 30.5c4.66699 8 12 14.667 22 20s21 9.66602 33 12.999s24.333 5.83301 37 7.5s24.667 2.83398 36 3.50098
c-23.333 20 -47.333 36.667 -72 50c-5.33301 0 -10.5 0.5 -15.5 1.5s-9.83301 2.16699 -14.5 3.5c-9.33301 2 -18.666 3.5 -27.999 4.5s-18.333 -0.166992 -27 -3.5c-3.33301 -1.33301 -6.5 -2.83301 -9.5 -4.5l-9.5 -5.5c-4.66699 -3.33301 -9.5 -6.16602 -14.5 -8.49902
s-10.167 -3.83301 -15.5 -4.5c-3.33301 -0.666992 -6.5 -1.16699 -9.5 -1.5s-6.16699 -0.5 -9.5 -0.5c-23.333 0 -46.833 4.16699 -70.5 12.5s-44.167 17.166 -61.5 26.499c-40 -13.333 -77 -33.666 -111 -60.999c11.333 1.33301 22.833 1.5 34.5 0.5
s19.5 -6.16699 23.5 -15.5c4 -8.66699 10 -16.834 18 -24.501s16.667 -14.5 26 -20.5c2.66699 -1.33301 6.66699 -2.33301 12 -3c1.33301 -0.666992 5 -3.33398 11 -8.00098c0.666992 0 1.33398 -0.333008 2.00098 -1s1.66699 -1.33398 3 -2.00098l9 -3
c8 2.66699 14.333 1 19 -5c4 -2 8 -4.33301 12 -7c3.33301 -2.66699 7.16602 -6 11.499 -10s8.16602 -8.66699 11.499 -14c-4 -6.66699 -8.66699 -13.334 -14 -20.001l-8 -10c-1.33301 -1.33301 -3 -2.66602 -5 -3.99902s-4.33301 -2.66602 -7 -3.99902
c0 -0.666992 0.166992 -1 0.5 -1s0.5 -0.333008 0.5 -1c2.66699 -4 1.66699 -7.33301 -3 -10c-5.33301 -2.66699 -11.333 -4 -18 -4l-10 -2c-3.33301 -0.666992 -5.66602 -2 -6.99902 -4c0 -0.666992 -1 -1.33398 -3 -2.00098c-2.66699 -0.666992 -5 -2.33398 -7 -5.00098
c-4 -4 -7 -11.333 -9 -22c-0.666992 -2.66699 -2 -5.33398 -4 -8.00098c2 -17.333 2.5 -32.666 1.5 -45.999s-5.16699 -20.666 -12.5 -21.999c-3.33301 -0.666992 -7.33301 0 -12 2c-4.66699 1.33301 -10.334 3.83301 -17.001 7.5s-14.667 9.16699 -24 16.5
c0.666992 -3.33301 1.5 -6.5 2.5 -9.5s2.16699 -5.83301 3.5 -8.5s2.33301 -5.66699 3 -9c2 0 3.83301 0.166992 5.5 0.5s3.16699 0.5 4.5 0.5c3.33301 0 5.66602 -1.33301 6.99902 -4c1.33301 -3.33301 1 -6 -1 -8l-2.5 -5
c-0.333008 -0.666992 -0.5 -1.33398 -0.5 -2.00098l6 -3c4 -2.66699 6.66699 -5 8 -7c1.33301 0 2.33301 -0.166992 3 -0.5s1.66699 -0.5 3 -0.5c7.33301 0 15.833 0.5 25.5 1.5s19.667 1.16699 30 0.5s20.666 -3 30.999 -7s20.166 -11.333 29.499 -22
c9.33301 -10 19 -18.333 29 -25l27 -17.5c8 -5 14.5 -10 19.5 -15s7.5 -10.833 7.5 -17.5c0 -13.333 -0.833008 -26.5 -2.5 -39.5s-3.5 -22.167 -5.5 -27.5c-1.33301 -6 -7 -14.167 -17 -24.5s-21.667 -19.833 -35 -28.5c-4.66699 -4 -9 -8.66699 -13 -14
c-3.33301 -4.66699 -6.5 -10.5 -9.5 -17.5s-4.5 -15.5 -4.5 -25.5c-5.33301 -8.66699 -9.66602 -16.667 -12.999 -24s-6.33301 -13.666 -9 -18.999c-2.66699 -6.66699 -5.33398 -12.334 -8.00098 -17.001c63.333 -12 124.833 -8 184.5 12s110.834 53.333 153.501 100z
M361 159.999c0.666992 10.667 1.66992 22.9971 3.00293 36.9971l4 41.5l3.5 36.5c1 10.667 1.83301 18 2.5 22c0.666992 7.33301 -2.33301 16 -9 26l-6 9c-5.33301 8.66699 -10.833 18.334 -16.5 29.001s-8.83398 23.334 -9.50098 38.001c-0.666992 13.333 -0.5 23 0.5 29
s1.5 10.667 1.5 14c-1.33301 1.33301 -2.5 2.33301 -3.5 3s-2.16699 1.33398 -3.5 2.00098c-4.66699 4.66699 -8.33398 8 -11.001 10c-4.66699 4.66699 -8.33398 8 -11.001 10c-12 6 -24.667 10.5 -38 13.5s-25.666 7.16699 -36.999 12.5c-4.66699 2 -11 5 -19 9
s-16.333 9 -25 15s-17.334 13 -26.001 21s-16 17 -22 27c-5.33301 -34 -6.16602 -68.167 -2.49902 -102.5s12.167 -68.166 25.5 -101.499c18.667 -46 45.167 -86.333 79.5 -121s74.166 -61.334 119.499 -80.001zM500.003 975.996c65.333 0 127 -12.5 185 -37.5
s108.5 -59 151.5 -102s77 -93.5 102 -151.5s37.5 -119.667 37.5 -185s-12.5 -127 -37.5 -185s-59 -108.5 -102 -151.5s-93.5 -77 -151.5 -102s-119.667 -37.5 -185 -37.5s-127 12.5 -185 37.5s-108.5 59 -151.5 102s-77 93.5 -102 151.5s-37.5 119.667 -37.5 185
s12.5 127 37.5 185s59 108.5 102 151.5s93.5 77 151.5 102s119.667 37.5 185 37.5z" />
    <glyph glyph-name="Home" unicode="&#xf00c;" 
d="M923 655c8 -5.33301 12.001 -13.333 12.001 -24v-568c0 -8.66699 -3 -16 -9 -22s-13.333 -9 -22 -9h-233c-8.66699 0 -16 3 -22 9s-9 13.333 -9 22v348h-269v-348c0 -8.66699 -3 -16 -9 -22s-13.333 -9 -22 -9h-234c-8.66699 0 -16 3 -22 9s-9 13.333 -9 22v568
c0 10 4 18 12 24l392 314c5.33301 4.66699 11.666 7 18.999 7s14 -2.33301 20 -7l405 -314v0z" />
    <glyph glyph-name="Quote" unicode="&#xf00d;" 
d="M975 697c2 -7.33301 0.667969 -14.334 -3.99902 -21.001s-11 -10.667 -19 -12c-114 -16 -171.667 -69.333 -173 -160h103c7.33301 0 13.666 -2.66699 18.999 -8s8 -11.666 8 -18.999v-386c0 -8 -2.66699 -14.667 -8 -20s-11.666 -8 -18.999 -8h-323
c-7.33301 0 -13.833 2.66699 -19.5 8s-8.5 12 -8.5 20v334c0 132 32.333 232.667 97 302s162 107.333 292 114c6.66699 0.666992 12.667 -1 18 -5s8.66602 -9.33301 9.99902 -16l27 -123v0zM476.001 696.999c2 -7.33301 0.666992 -14.334 -4 -21.001
c-5.33301 -7.33301 -11.666 -11.333 -18.999 -12c-114 -16 -171.667 -69.333 -173 -160h103c7.33301 0 13.666 -2.66699 18.999 -8s8 -11.666 8 -18.999v-386c0 -8 -2.66699 -14.667 -8 -20s-11.666 -8 -18.999 -8h-323c-7.33301 0 -13.833 2.66699 -19.5 8s-8.5 12 -8.5 20
v334c0 132 32.333 232.667 97 302s162 107.333 292 114c6.66699 0.666992 12.667 -1 18 -5s8.66602 -9.33301 9.99902 -16z" />
    <glyph glyph-name="People" unicode="&#xf00e;" 
d="M755 411c13.333 -6.66699 20.001 -18 20.001 -34v-152c0 -10 -3 -18.667 -9 -26s-13.667 -11 -23 -11h-491c-8.66699 0 -16 3.66699 -22 11s-9 16 -9 26v152c0 16 6.66699 27.333 20 34l192 89c-23.333 14 -42 34 -56 60s-21 55 -21 87c0 22.667 3.66699 44 11 64
s17.5 37.5 30.5 52.5s28 26.833 45 35.5s35.5 13 55.5 13c19.333 0 37.666 -4.33301 54.999 -13s32.333 -20.5 45 -35.5s22.667 -32.5 30 -52.5s11 -41.333 11 -64c0 -32 -6.83301 -60.667 -20.5 -86s-31.5 -45 -53.5 -59l190 -91v0zM189.001 261l-156.999 -0.00390625
c-6.66699 0 -12.334 2.83301 -17.001 8.5s-7 12.167 -7 19.5v75c0 12.667 5 21.334 15 26.001l148 69c-17.333 10.667 -31.5 25.834 -42.5 45.501s-16.5 42.167 -16.5 67.5c0 17.333 2.83301 33.666 8.5 48.999s13.5 28.666 23.5 39.999s21.5 20.333 34.5 27
s27.167 10 42.5 10s29.666 -3.33301 42.999 -10s24.833 -15.667 34.5 -27s17.334 -24.666 23.001 -39.999s8.5 -31.666 8.5 -48.999c0 -20 -3.5 -38.5 -10.5 -55.5s-16.5 -31.167 -28.5 -42.5l-62 -29c-12 -5.33301 -21.667 -14.166 -29 -26.499s-11 -26.166 -11 -41.499
v-116zM973.002 389.996c10 -5.33301 15 -13.9961 15 -25.9961v-75c0 -7.33301 -2.33301 -13.833 -7 -19.5s-10.334 -8.5 -17.001 -8.5h-158v116c0 15.333 -3.5 29.166 -10.5 41.499s-16.5 21.166 -28.5 26.499l-62 30c-12 11.333 -21.5 25.5 -28.5 42.5
s-10.5 35.167 -10.5 54.5c0 17.333 2.83301 33.666 8.5 48.999s13.5 28.666 23.5 39.999s21.5 20.333 34.5 27s27.167 10 42.5 10c14.667 0 28.667 -3.33301 42 -10s25 -15.667 35 -27s17.833 -24.666 23.5 -39.999s8.5 -31.666 8.5 -48.999
c0 -24.667 -5.16699 -46.834 -15.5 -66.501s-24.166 -34.834 -41.499 -45.501l146 -70v0z" />
    <glyph glyph-name="Monitor" unicode="&#xf00f;" 
d="M840 758h-672v-367h672v367zM895 868c15.333 0 28.166 -5.33301 38.499 -16s15.5 -23.667 15.5 -39v-477c0 -15.333 -5.16699 -28.166 -15.5 -38.499s-23.166 -15.5 -38.499 -15.5h-275v-83h64c4 0 7.5 -1.5 10.5 -4.5s4.5 -6.83301 4.5 -11.5v-35
c0 -4.66699 -1.5 -8.33398 -4.5 -11.001s-6.5 -4 -10.5 -4h-368c-4 0 -7.5 1.33301 -10.5 4s-4.5 6.33398 -4.5 11.001v35c0 4.66699 1.5 8.5 4.5 11.5s6.5 4.5 10.5 4.5h64v83h-267c-15.333 0 -28.166 5.16699 -38.499 15.5s-15.5 23.166 -15.5 38.499v477
c0 15.333 5.16699 28.333 15.5 39s23.166 16 38.499 16h782v0z" />
    <glyph glyph-name="Laptop" unicode="&#xf010;" 
d="M588 252c0 3.33301 -0.333008 6.16602 -1 8.49902s-1.66699 3.5 -3 3.5h-169c-1.33301 0 -2.33301 -1.16699 -3 -3.5s-1 -5.16602 -1 -8.49902v-55c0 -3.33301 0.333008 -6.16602 1 -8.49902s1.66699 -3.5 3 -3.5h169c1.33301 0 2.33301 1.16699 3 3.5
s1 5.16602 1 8.49902v55zM963 294c6.66699 0 12.166 -2.16699 16.499 -6.5s6.5 -9.83301 6.5 -16.5v-57c0 -6.66699 -2 -12 -6 -16l-36 -36c-4 -4.66699 -9.66699 -7 -17 -7h-857c-7.33301 0 -13 2.33301 -17 7l-34 36c-4 4.66699 -6 10 -6 16v57
c0 6.66699 2.33301 12.167 7 16.5s10.334 6.5 17.001 6.5h926v0zM207.999 432h584v321h-584v-321zM160.999 338c-13.333 0 -24.5 4.5 -33.5 13.5s-13.5 20.167 -13.5 33.5v415c0 13.333 4.5 24.5 13.5 33.5s20.167 13.5 33.5 13.5h678c13.333 0 24.5 -4.5 33.5 -13.5
s13.5 -20.167 13.5 -33.5v-415c0 -13.333 -4.5 -24.5 -13.5 -33.5s-20.167 -13.5 -33.5 -13.5h-678v0z" />
    <glyph glyph-name="Phone" unicode="&#xf011;" 
d="M976 244c2 -15.333 -2.6709 -28.6641 -14.0039 -39.9971l-133 -132c-6 -6.66699 -13.833 -12.334 -23.5 -17.001s-19.167 -7.66699 -28.5 -9c-0.666992 0 -2.66699 -0.166992 -6 -0.5s-7.66602 -0.5 -12.999 -0.5c-12.667 0 -33.167 2.16699 -61.5 6.5s-63 15 -104 32
s-87.5 42.5 -139.5 76.5s-107.333 80.667 -166 140c-46.667 46 -85.334 90 -116.001 132s-55.334 80.833 -74.001 116.5s-32.667 68 -42 97s-15.666 54 -18.999 75s-4.66602 37.5 -3.99902 49.5s1 18.667 1 20c1.33301 9.33301 4.33301 18.833 9 28.5
s10.334 17.5 17.001 23.5l133 133c9.33301 9.33301 20 14 32 14c8.66699 0 16.334 -2.5 23.001 -7.5s12.334 -11.167 17.001 -18.5l107 -203c6 -10.667 7.66699 -22.334 5 -35.001s-8.33398 -23.334 -17.001 -32.001l-49 -49c-1.33301 -1.33301 -2.5 -3.5 -3.5 -6.5
s-1.5 -5.5 -1.5 -7.5c2.66699 -14 8.66699 -30 18 -48c8 -16 20.333 -35.5 37 -58.5s40.334 -49.5 71.001 -79.5c30 -30.667 56.667 -54.5 80 -71.5s42.833 -29.5 58.5 -37.5s27.667 -12.833 36 -14.5l12.5 -2.5c1.33301 0 3.5 0.5 6.5 1.5s5.16699 2.16699 6.5 3.5l57 58
c12 10.667 26 16 42 16c11.333 0 20.333 -2 27 -6h1l193 -114c14 -8.66699 22.333 -19.667 25 -33z" />
    <glyph glyph-name="Cloud" unicode="&#xf012;" 
d="M807 567c23.333 2.66699 45.666 0.166992 66.999 -7.5s40 -19.334 56 -35.001s28.667 -34.5 38 -56.5s14 -45.667 14 -71c0 -37.333 -10.333 -71.333 -31 -102c-6 -9.33301 -14.333 -14 -25 -14h-844c-12 0 -20.667 5 -26 15c-25.333 41.333 -38 86.666 -38 135.999
c0 34 5.83301 66 17.5 96s27.834 56 48.501 78s44.5 39.5 71.5 52.5s56.167 19.5 87.5 19.5c16 0 31.667 -2 47 -6c28 40 62.5 71 103.5 93s84.5 33 130.5 33c32.667 0 64.167 -5.66699 94.5 -17s58 -27.166 83 -47.499s46.5 -44.666 64.5 -72.999s31.667 -59.5 41 -93.5z
" />
    <glyph glyph-name="Error" unicode="&#xf013;" 
d="M750 570c0 6.66699 -2.16699 12.334 -6.5 17.001s-9.83301 7 -16.5 7h-446c-6.66699 0 -12.334 -2.33301 -17.001 -7s-7 -10.334 -7 -17.001v-140c0 -6.66699 2.33301 -12.334 7 -17.001s10.334 -7 17.001 -7h446c6.66699 0 12.167 2.33301 16.5 7s6.5 10.334 6.5 17.001
v140zM504 972c64.667 0 125.667 -12.333 183 -37s107.5 -58.5 150.5 -101.5s76.833 -93.167 101.5 -150.5s37 -118.333 37 -183c0 -65.333 -12.333 -126.5 -37 -183.5s-58.5 -107 -101.5 -150s-93.167 -76.833 -150.5 -101.5s-118.333 -37 -183 -37
c-65.333 0 -126.666 12.333 -183.999 37s-107.333 58.5 -150 101.5s-76.334 93 -101.001 150s-37 118.167 -37 183.5c0 64.667 12.333 125.667 37 183s58.334 107.5 101.001 150.5s92.667 76.833 150 101.5s118.666 37 183.999 37zM504 847c-48 0 -93 -9.16699 -135 -27.5
s-78.667 -43.166 -110 -74.499s-56.166 -68 -74.499 -110s-27.5 -87 -27.5 -135s9.16699 -93 27.5 -135s43.166 -78.667 74.499 -110s68 -56.166 110 -74.499s87 -27.5 135 -27.5s93 9.16699 135 27.5s78.667 43.166 110 74.499s56.166 68 74.499 110s27.5 87 27.5 135
s-9.16699 93 -27.5 135s-43.166 78.667 -74.499 110s-68 56.166 -110 74.499s-87 27.5 -135 27.5z" />
    <glyph glyph-name="RightArrow" unicode="&#xf014;" 
d="M511 159c-10 -6.66699 -20.667 -7.33203 -32 -1.99902s-17 14.666 -17 27.999v151h-406c-9.33301 0 -17 3 -23 9s-9 13.333 -9 22v280c0 9.33301 3 17 9 23s13.667 9 23 9h406v151c0 12.667 5.66699 22 17 28s22 5 32 -3l453 -321c8.66699 -6.66699 13 -15 13 -25v-1
c0 -10 -4.33301 -18.333 -13 -25l-453 -324v0z" />
    <glyph glyph-name="LeftArrow" unicode="&#xf015;" 
d="M489 855c10.667 7.33301 21.667 8.33008 33 2.99707c11.333 -6.66699 17 -16 17 -28v-151h406c8.66699 0 16 -3 22 -9s9 -13.667 9 -23v-280c0 -8.66699 -3 -16 -9 -22s-13.333 -9 -22 -9h-406v-151c0 -13.333 -5.66699 -22.666 -17 -27.999
s-22.333 -4.66602 -33 2.00098l-452 322c-8.66699 6.66699 -13 15 -13 25c0 10.667 4.33301 19.334 13 26.001l452 323v0z" />
    <glyph glyph-name="UpArrow" unicode="&#xf016;" 
d="M848 518c8 -10 8.66895 -20.667 2.00195 -32c-5.33301 -11.333 -14.333 -17 -27 -17h-152v-406c0 -9.33301 -3 -17 -9 -23s-13.333 -9 -22 -9h-280c-8.66699 0 -16 3 -22 9s-9 13.667 -9 23v406h-152c-12.667 0 -21.667 5.66699 -27 17c-6.66699 11.333 -6 22 2 32
l322 452c5.33301 9.33301 13.666 14 24.999 14s19.666 -4.33301 24.999 -13l324 -453v0z" />
    <glyph glyph-name="DownArrow" unicode="&#xf017;" 
d="M156 497c-8 10 -8.66895 20.667 -2.00195 32c5.33301 11.333 14.333 17 27 17h152v406c0 9.33301 3 17 9 23s13.333 9 22 9h280c8.66699 0 16 -3 22 -9s9 -13.667 9 -23v-406h152c12.667 0 21.667 -5.66699 27 -17c6.66699 -11.333 6 -22 -2 -32l-322 -453
c-5.33301 -8.66699 -13.666 -13 -24.999 -13s-19.666 4.33301 -24.999 13l-324 453v0z" />
    <glyph glyph-name="Trash" unicode="&#xf018;" 
d="M853 897c8 0 14.833 -2.83301 20.5 -8.5s8.5 -12.5 8.5 -20.5v-84c0 -8 -2.83301 -14.833 -8.5 -20.5s-12.5 -8.5 -20.5 -8.5h-706c-8 0 -14.833 2.83301 -20.5 8.5s-8.5 12.5 -8.5 20.5v84c0 8 2.83301 14.833 8.5 20.5s12.5 8.5 20.5 8.5h239v37
c0 8 2.83301 14.833 8.5 20.5s12.167 8.5 19.5 8.5h172c7.33301 0 13.833 -2.83301 19.5 -8.5s8.5 -12.5 8.5 -20.5v-37h239v0zM814 702c8 0 14.833 -2.83301 20.5 -8.5s8.5 -12.5 8.5 -20.5v-607c0 -8 -2.83301 -14.833 -8.5 -20.5s-12.5 -8.5 -20.5 -8.5h-628
c-8 0 -14.833 2.83301 -20.5 8.5s-8.5 12.5 -8.5 20.5v607c0 8 2.83301 14.833 8.5 20.5s12.5 8.5 20.5 8.5h628v0z" />
    <glyph glyph-name="AddDocument" unicode="&#xf019;" 
d="M722 969c7.33301 0 13.332 -2.33203 17.999 -6.99902s7 -10.667 7 -18v-278h-81v222h-305v-163c0 -6.66699 -3 -10 -9 -10h-166v-573h360v-82h-416c-7.33301 0 -13.333 2.5 -18 7.5s-7 11.167 -7 18.5v639v49v3h1c0 1.33301 0.666992 2.66602 2 3.99902l188 185v3h6
c0.666992 0.666992 1.33398 1 2.00098 1h48l2 -1h368v0zM955.999 393.001c8.66699 0 13 -4.33301 13 -13v-121c0 -8.66699 -4.33301 -13 -13 -13h-172v-173c0 -8.66699 -4.33301 -13 -13 -13h-121c-8.66699 0 -13 4.33301 -13 13v173h-173c-8.66699 0 -13 4.33301 -13 13
v121c0 8.66699 4.33301 13 13 13h173v173c0 8.66699 4.33301 13 13 13h121c8.66699 0 13 -4.33301 13 -13v-173h172v0z" />
    <glyph glyph-name="Edit" unicode="&#xf01a;" 
d="M569 319l-69 69l-33 -103zM944 638c3.33301 -3.33301 5.00098 -7.33008 5.00098 -11.9971s-1.66699 -8.66699 -5 -12l-334 -334c-0.666992 -0.666992 -2.66699 -2 -6 -4l-185 -60c-0.666992 0 -1.33398 -0.166992 -2.00098 -0.5s-1.66699 -0.5 -3 -0.5
c-4.66699 0 -8.66699 1.66699 -12 5c-5.33301 4.66699 -6.66602 10.667 -3.99902 18l59 183c0.666992 2.66699 2.66699 5.66699 6 9l239 239v219h-305v-163c0 -6.66699 -3 -10 -9 -10h-165v-573h120h239h120v128l34.5 33.5c8.33301 8.33301 15.166 14.833 20.499 19.5l12 12
c5.33301 5.33301 9.16602 6.66602 11.499 3.99902s3.5 -6.33398 3.5 -11.001v-240c0 -8 -2.5 -14.667 -7.5 -20s-11.167 -8 -18.5 -8h-176h-239h-177c-7.33301 0 -13.333 2.5 -18 7.5s-7 11.167 -7 18.5v639v49v3h1c0 1.33301 0.666992 2.66602 2 3.99902l188 185v3h6
c0.666992 0.666992 1.33398 1 2.00098 1h48l2 -1h368c7.33301 0 13.5 -2.33301 18.5 -7s7.5 -10.667 7.5 -18v-193l12 12c3.33301 3.33301 7.33301 5 12 5s8.66699 -1.66699 12 -5z" />
    <glyph glyph-name="Lock" unicode="&#xf01b;" 
d="M378 573h233v102v1c0 16 -3.16699 31 -9.5 45s-14.833 26.167 -25.5 36.5s-23 18.5 -37 24.5s-29 9 -45 9s-31 -3 -45 -9s-26.333 -14.333 -37 -25s-19 -23 -25 -37s-9 -29 -9 -45v-102zM883 573c8.66699 0 16 -3 22 -9s9 -13.333 9 -22v-460c0 -8.66699 -3 -16 -9 -22
s-13.333 -9 -22 -9h-766c-8.66699 0 -16 3 -22 9s-9 13.333 -9 22v460c0 8.66699 3 16 9 22s13.333 9 22 9h44h51v102c0 38.667 7.5 75.334 22.5 110.001s35.167 64.667 60.5 90s55.166 45.5 89.499 60.5s70.833 22.5 109.5 22.5s75.334 -7.5 110.001 -22.5
s64.667 -35.167 90 -60.5s45.5 -55.333 60.5 -90s22.5 -71.334 22.5 -110.001v-1v-101h62h44v0z" />
    <glyph glyph-name="Unlock" unicode="&#xf01c;" 
d="M883 556c8.66699 0 16 -2.99902 22 -8.99902s9 -13.333 9 -22v-460c0 -9.33301 -3 -16.833 -9 -22.5s-13.333 -8.5 -22 -8.5h-766c-8.66699 0 -16 2.83301 -22 8.5s-9 13.167 -9 22.5v460c0 8.66699 3 16 9 22s13.333 9 22 9h44h68v131c0 38.667 7.5 75.334 22.5 110.001
s35.167 64.667 60.5 90s55.166 45.5 89.499 60.5s71.166 22.5 110.499 22.5c38.667 0 74.834 -7.33301 108.501 -22s63.334 -34.5 89.001 -59.5s46 -54.333 61 -88s22.833 -69.834 23.5 -108.501c0.666992 -0.666992 1 -2.33398 1 -5.00098
c0 -6.66699 -2.16699 -12.334 -6.5 -17.001s-9.83301 -7 -16.5 -7h-1h-120c-6.66699 0 -12.167 2.33301 -16.5 7s-6.5 10.334 -6.5 17.001c0 16 -3 31 -9 45s-14.333 26.333 -25 37s-23 19 -37 25s-29 9 -45 9s-31 -3 -45 -9s-26.333 -14.333 -37 -25s-19 -23 -25 -37
s-9 -29 -9 -45v-131h286h157h44v0z" />
    <glyph glyph-name="Refresh" unicode="&#xf01d;" 
d="M948 521c0 -6.66699 -2.66992 -11.998 -8.00293 -15.998c-6 -4 -12.333 -5 -19 -3l-336 115c-8 2.66699 -12.667 8 -14 16s1.33398 14.333 8.00098 19l79 56l13 10c-23.333 18.667 -49.5 33.167 -78.5 43.5s-59.833 15.5 -92.5 15.5c-38 0 -73.833 -7.33301 -107.5 -22
s-63 -34.5 -88 -59.5s-44.833 -54.333 -59.5 -88s-22 -69.5 -22 -107.5s7.33301 -73.833 22 -107.5s34.5 -63 59.5 -88s54.333 -44.833 88 -59.5s69.5 -22 107.5 -22c46.667 0 90.334 10.667 131.001 32s73.667 51.333 99 90c4 6 9.5 9.66699 16.5 11s13.167 0 18.5 -4
l118 -82c4.66699 -2.66699 7.66699 -7.66699 9 -15c2 -5.33301 1 -11 -3 -17c-22 -32.667 -47.333 -61.834 -76 -87.501s-59.667 -47.334 -93 -65.001s-68.666 -31.167 -105.999 -40.5s-75.333 -14 -114 -14c-64.667 0 -125.5 12.333 -182.5 37s-106.667 58.167 -149 100.5
s-75.833 92 -100.5 149s-37 117.833 -37 182.5s12.333 125.5 37 182.5s58.167 106.667 100.5 149s92 75.833 149 100.5s117.833 37 182.5 37s125.167 -12.333 181.5 -37s105.833 -58.334 148.5 -101.001l6 5l79 56c6 4.66699 13 5.33398 21 2.00098
c7.33301 -4.66699 11 -10.667 11 -18z" />
    <glyph glyph-name="PaperClip" unicode="&#xf01e;" 
d="M255 17c-17.333 0 -36.6738 3.83789 -58.0068 11.5049s-43 22.5 -65 44.5c-14.667 14.667 -26.167 29 -34.5 43s-14.666 27.5 -18.999 40.5s-7 25.167 -8 36.5s-0.833008 21.666 0.5 30.999c4.66699 42.667 26.334 83.667 65.001 123l370 370
c26 26 49.667 43.833 71 53.5s40.5 14.334 57.5 14.001s31.833 -4 44.5 -11s23 -14.5 31 -22.5c10 -10 18.333 -21.5 25 -34.5s9.83398 -28 9.50098 -45s-5.66602 -35.667 -15.999 -56s-27.833 -42.833 -52.5 -67.5l-341 -341l-66 67l340 340
c13.333 13.333 22.833 24.166 28.5 32.499s9.33398 15.166 11.001 20.499s1.66699 9.33301 0 12s-3.16699 4.66699 -4.5 6c-1.33301 0.666992 -3.33301 1.83398 -6 3.50098s-6.66699 1.83398 -12 0.500977s-12.333 -4.83301 -21 -10.5s-19.334 -14.834 -32.001 -27.501
l-370 -370c-8 -8 -16.167 -18 -24.5 -30s-13.166 -24.667 -14.499 -38c-2.66699 -22.667 8.66602 -47.334 33.999 -74.001c16.667 -16 30.667 -24.833 42 -26.5s19 -2.16699 23 -1.5c22.667 3.33301 46.667 18 72 44l439 439c36 35.333 58.667 69.666 68 102.999
c12.667 47.333 -3.66602 93.666 -48.999 138.999c-12 12 -25.833 23.167 -41.5 33.5s-33.5 16.5 -53.5 18.5s-42.167 -2 -66.5 -12s-51.166 -29.667 -80.499 -59l-405 -405c-9.33301 -9.33301 -20.5 -14 -33.5 -14s-24.167 4.66699 -33.5 14s-14 20.333 -14 33
s4.66699 23.667 14 33l405 405c63.333 62.667 127.5 95.667 192.5 99s126.167 -23.334 183.5 -80.001c22 -22 38.833 -43.667 50.5 -65s19.834 -41.833 24.501 -61.5s6.33398 -38.334 5.00098 -56.001s-4 -33.5 -8 -47.5c-14 -49.333 -44.667 -97.666 -92 -144.999
l-439 -439c-40.667 -40.667 -82.334 -64 -125.001 -70c-3.33301 0 -6.83301 -0.166992 -10.5 -0.5s-7.16699 -0.5 -10.5 -0.5z" />
    <glyph glyph-name="Video" unicode="&#xf01f;" 
d="M533 578l-140 81v-162v-163l140 81l141 82zM860 744h-720v-488h720v488zM82 139c-16 0 -29.833 5.66699 -41.5 17s-17.5 25.333 -17.5 42v604c0 16.667 5.83301 30.667 17.5 42s25.5 17 41.5 17h836c16 0 29.833 -5.66699 41.5 -17s17.5 -25.333 17.5 -42v-604
c0 -16.667 -5.83301 -30.667 -17.5 -42s-25.5 -17 -41.5 -17h-836z" />
    <glyph glyph-name="Photo" unicode="&#xf020;" 
d="M836 815h-672v-464h672v464zM109 75c-15.333 0 -28.166 5.33301 -38.499 16s-15.5 23.667 -15.5 39v740c0 15.333 5.16699 28.333 15.5 39s23.166 16 38.499 16h782c15.333 0 28.166 -5.33301 38.499 -16s15.5 -23.667 15.5 -39v-740
c0 -15.333 -5.16699 -28.333 -15.5 -39s-23.166 -16 -38.499 -16h-782z" />
    <glyph glyph-name="Graph" unicode="&#xf021;" 
d="M403 309c13.333 1.33301 23.667 7.66992 31 19.0029l95 148l66 -139c3.33301 -7.33301 8.33301 -13.166 15 -17.499s14 -6.5 22 -6.5c16.667 -1.33301 29.334 5.66699 38.001 21l164 287c5.33301 10.667 6.5 21.667 3.5 33s-9.5 19.666 -19.5 24.999
c-10 6 -20.667 7.5 -32 4.5s-20 -9.83301 -26 -20.5l-123 -216l-64 134c-6.66699 15.333 -18.334 23.666 -35.001 24.999c-8 0.666992 -15.333 -0.833008 -22 -4.5s-12.334 -8.83398 -17.001 -15.501l-108 -168l-49 49c-7.33301 7.33301 -16.5 11.333 -27.5 12
s-20.833 -2.33301 -29.5 -9l-101 -84c-9.33301 -7.33301 -14.5 -16.833 -15.5 -28.5s2.16699 -22.167 9.5 -31.5s16.833 -14.333 28.5 -15s22.167 2.66602 31.5 9.99902l72 59l59 -59c6.66699 -8 16.334 -12 29.001 -12h5zM863.001 746.004h-726v-492h726v492z
M77.001 135.004c-16 0 -29.833 5.83301 -41.5 17.5s-17.5 25.834 -17.5 42.501v610c0 16.667 5.83301 30.834 17.5 42.501s25.5 17.5 41.5 17.5h846c16 0 29.833 -5.83301 41.5 -17.5s17.5 -25.834 17.5 -42.501v-610c0 -16.667 -5.83301 -30.834 -17.5 -42.501
s-25.5 -17.5 -41.5 -17.5h-846z" />
    <glyph glyph-name="Idea" unicode="&#xf022;" 
d="M440 97c-9.33301 0 -17.166 2.83301 -23.499 8.5s-9.5 12.167 -9.5 19.5c0 8 3.16699 14.833 9.5 20.5s14.166 8.5 23.499 8.5h64h1h64c9.33301 0 17.166 -2.83301 23.499 -8.5s9.5 -12.5 9.5 -20.5c0 -7.33301 -3.16699 -13.833 -9.5 -19.5s-14.166 -8.5 -23.499 -8.5
h-64h-1h-64v0zM569 67c9.33301 0 17.166 -2.83301 23.499 -8.5s9.5 -12.5 9.5 -20.5c0 -7.33301 -3.16699 -13.833 -9.5 -19.5s-14.166 -8.5 -23.499 -8.5h-64h-1h-64c-9.33301 0 -17.166 2.83301 -23.499 8.5s-9.5 12.167 -9.5 19.5c0 8 3.16699 14.833 9.5 20.5
s14.166 8.5 23.499 8.5h64h1h64v0zM505 1000c10.667 -0.666992 19.999 -4.33398 27.999 -11.001s12.667 -15.334 14 -26.001c1.33301 -4 1.33301 -7.66699 0 -11l-18 -138c-1.33301 -6 -4.16602 -11 -8.49902 -15s-9.5 -6 -15.5 -6h-1c-6 0 -11.167 2 -15.5 6
s-6.83301 9 -7.5 15l-19 138v11c1.33301 10.667 6 19.334 14 26.001s17.333 10.334 28 11.001h1v0zM739.999 528v-9l-2 -21c-0.666992 -6.66699 -1.66699 -13.334 -3 -20.001c-2 -13.333 -5.83301 -26.5 -11.5 -39.5s-12.167 -26.167 -19.5 -39.5l-23.5 -41
c-8.33301 -14 -16.5 -28.667 -24.5 -44l-26 -56c-7.33301 -16 -14.166 -29.667 -20.499 -41s-12.5 -20.333 -18.5 -27s-12.667 -10.667 -20 -12c-1.33301 0 -5.16602 -0.166992 -11.499 -0.5s-13.166 -0.5 -20.499 -0.5h-21h-13h-13h-21.5
c-7.66699 0 -14.667 0.166992 -21 0.5s-9.83301 0.5 -10.5 0.5c-8 1.33301 -15 5.33301 -21 12s-12 15.667 -18 27s-12.667 25 -20 41s-16.333 34.667 -27 56c-7.33301 15.333 -15.166 30 -23.499 44l-23.5 41c-7.33301 13.333 -13.833 26.5 -19.5 39.5
s-9.5 26.167 -11.5 39.5c-2.66699 12.667 -4.66699 26.334 -6 41.001v9v1c0 32.667 6.16699 63.167 18.5 91.5s29.166 53.166 50.499 74.499s46.166 38.333 74.499 51s58.833 19 91.5 19h1c32.667 0 63.167 -6.33301 91.5 -19s53.166 -29.667 74.499 -51
s38.166 -46.166 50.499 -74.499s18.5 -58.833 18.5 -91.5v-1zM133.999 346c-1.33301 -0.666992 -3.00195 -1.16699 -5.00195 -1.5s-3.66699 -0.833008 -5 -1.5c-10.667 -1.33301 -20 1.16699 -28 7.5s-12.667 14.833 -14 25.5s1.16699 20 7.5 28s14.5 12.667 24.5 14l120 16
c10 1.33301 17.333 -3 22 -13c2.66699 -5.33301 2.83398 -10.833 0.500977 -16.5s-6.16602 -9.5 -11.499 -11.5l-111 -47v0zM130.997 752l-4.00098 4.00098l-4 4c-7.33301 9.33301 -10.166 20 -8.49902 32s7.16699 21.667 16.5 29s20 10.166 32 8.49902
s21.667 -7.16699 29 -16.5l84 -110c7.33301 -10 7.33301 -20.333 0 -31c-4 -5.33301 -9.33301 -8.5 -16 -9.5s-12.667 0.833008 -18 5.5l-111 84v0zM881.996 347.001c2.66699 -2 6.00195 -2.99707 10.002 -2.99707c10.667 -1.33301 20.167 1.16699 28.5 7.5
s13.166 14.833 14.499 25.5c1.33301 11.333 -1.16699 21.166 -7.5 29.499s-14.833 13.166 -25.5 14.499l-123 16c-11.333 1.33301 -19.333 -3 -24 -13c-2 -5.33301 -1.83301 -10.833 0.5 -16.5s6.16602 -9.83398 11.499 -12.501l115 -48v0zM877.998 752.004
c2 1.33301 5 4.00098 9 8.00098c7.33301 10 10 20.833 8 32.5s-7.66699 21.167 -17 28.5s-20 10.166 -32 8.49902s-21.667 -7.16699 -29 -16.5l-84 -110c-7.33301 -10 -7.33301 -20.333 0 -31c4 -5.33301 9.5 -8.5 16.5 -9.5s13.167 0.833008 18.5 5.5l110 84v0z" />
    <glyph glyph-name="Mic" unicode="&#xf023;" 
d="M232 263h534.999v254h-52v-149c0 -4 -3.66699 -9.5 -11 -16.5s-19.166 -14.167 -35.499 -21.5s-38 -13.666 -65 -18.999s-60.167 -8 -99.5 -8s-73 2.66699 -101 8s-50.833 11.666 -68.5 18.999s-30.667 14.5 -39 21.5s-12.5 12.5 -12.5 16.5v149h-51v-254zM937.999 62
c9.33301 -6 12.3281 -14.668 8.99512 -26.001s-11 -17 -23 -17h-843c-12 0 -19.667 5.66699 -23 17c-1.33301 5.33301 -1.16602 10.333 0.500977 15s4.83398 8.33398 9.50098 11.001c0.666992 0.666992 7.33398 4.16699 20.001 10.5s32.834 13.5 60.501 21.5
s64.167 15.667 109.5 23s101 12.333 167 15v52h-232c-11.333 0 -20.833 3.83301 -28.5 11.5s-11.5 17.167 -11.5 28.5v374c0 10.667 3.83301 19.834 11.5 27.501s17.167 11.5 28.5 11.5h39v-47h51v315c0 4 3.83301 9.83301 11.5 17.5s19.834 15.167 36.501 22.5v-148
c0 -2 1.66699 -6.16699 5 -12.5s9 -9.5 17 -9.5s13.667 3.16699 17 9.5s5 10.5 5 12.5v164c8 2 16.5 4 25.5 6s18.5 3.66699 28.5 5v-175c0 -2 1.66699 -6.16699 5 -12.5s9 -9.5 17 -9.5s13.667 3.16699 17 9.5s5 10.5 5 12.5v179c4.66699 0 9.5 0.166992 14.5 0.5
s10.167 0.5 15.5 0.5c4 0 8 -0.166992 12 -0.5s8.33301 -0.5 13 -0.5v-179c0 -2 1.5 -6.16699 4.5 -12.5s8.5 -9.5 16.5 -9.5s13.667 3.16699 17 9.5s5 10.5 5 12.5v175c10.667 -1.33301 20.5 -2.83301 29.5 -4.5s17.5 -3.5 25.5 -5.5v-165c0 -2 1.5 -6.16699 4.5 -12.5
s8.5 -9.5 16.5 -9.5s13.667 3.16699 17 9.5s5 10.5 5 12.5v149c16.667 -8 28.5 -15.833 35.5 -23.5s10.5 -13.5 10.5 -17.5v-315h52v47h39c11.333 0 20.666 -3.83301 27.999 -11.5s11 -16.834 11 -27.501v-374c0 -11.333 -3.66699 -20.833 -11 -28.5
s-16.666 -11.5 -27.999 -11.5h-233v-52c68 -2 125 -6.66699 171 -14s83.167 -15 111.5 -23s48.833 -15.333 61.5 -22z" />
    <glyph glyph-name="ShoppingCart" unicode="&#xf024;" 
d="M257 849l27 -77h154l-9 77h-172zM886 849h-137l-9 -77h133zM827 503l12 72h-122l-8 -72h118zM378 503h91l-8 72h-108zM445 709h-139l25 -72h123zM524 575l8 -72h114l8 72h-130zM862 709h-130l-8 -72h126zM508 709l9 -72h144l9 72h-162zM686 849h-194l9 -77h176zM343 410
l-84 -104.001h624c13.333 0 24.5 -4.5 33.5 -13.5s13.5 -19.833 13.5 -32.5c0 -13.333 -4.5 -24.5 -13.5 -33.5s-20.167 -13.5 -33.5 -13.5h-722c-19.333 0 -33.333 8.66699 -42 26c-8.66699 18.667 -6.66699 35.334 6 50.001l159 198l-127 362h-104
c-13.333 0 -24.5 4.5 -33.5 13.5s-13.5 20.167 -13.5 33.5s4.5 24.5 13.5 33.5s20.167 13.5 33.5 13.5h138h531h219c14.667 0 26.667 -5.66699 36 -17c9.33301 -10.667 13 -23.334 11 -38.001l-75 -439c-2 -11.333 -7.5 -20.666 -16.5 -27.999s-19.167 -11 -30.5 -11h-521
h-2zM179 191.999c19.333 0 36 -7 50 -21s21 -30.667 21 -50s-7 -36 -21 -50s-30.667 -21 -50 -21s-36 7 -50 21s-21 30.667 -21 50s7 36 21 50s30.667 21 50 21zM829 191.999c19.333 0 36 -7 50 -21s21 -30.667 21 -50s-7 -36 -21 -50s-30.667 -21 -50 -21
c-20 0 -36.833 7 -50.5 21s-20.5 30.667 -20.5 50s6.83301 36 20.5 50s30.5 21 50.5 21z" />
    <glyph glyph-name="AddressBook" unicode="&#xf025;" 
d="M682 426c0 12.667 -5.66602 22.001 -16.999 28.001l-157 75c18 11.333 32.667 27.833 44 49.5s17 45.5 17 71.5c0 18.667 -3 36.334 -9 53.001s-14.333 31.167 -25 43.5s-23.167 22.166 -37.5 29.499s-29.5 11 -45.5 11s-31.167 -3.66699 -45.5 -11
s-26.833 -17.166 -37.5 -29.499s-19.167 -26.833 -25.5 -43.5s-9.5 -34.334 -9.5 -53.001c0 -26.667 5.83301 -50.834 17.5 -72.501s27.167 -38.167 46.5 -49.5l-159 -74c-5.33301 -2 -9.5 -5.66699 -12.5 -11s-4.5 -11 -4.5 -17v-126c0 -8.66699 2.5 -16 7.5 -22
s11.167 -9 18.5 -9h407c7.33301 0 13.666 3 18.999 9s8 13.333 8 22v126zM890.001 770.001v-83h67c8 0 14.833 -2.83301 20.5 -8.5s8.5 -12.5 8.5 -20.5v-87c0 -8 -2.83301 -14.833 -8.5 -20.5s-12.5 -8.5 -20.5 -8.5h-67v-83h67c8 0 14.833 -2.83301 20.5 -8.5
s8.5 -12.5 8.5 -20.5v-87c0 -8 -2.83301 -14.833 -8.5 -20.5s-12.5 -8.5 -20.5 -8.5h-67v-83h67c8 0 14.833 -2.83301 20.5 -8.5s8.5 -12.5 8.5 -20.5v-87c0 -8 -2.83301 -14.833 -8.5 -20.5s-12.5 -8.5 -20.5 -8.5h-67v-24c0 -13.333 -4.5 -24.5 -13.5 -33.5
s-20.167 -13.5 -33.5 -13.5h-781c-13.333 0 -24.5 4.5 -33.5 13.5s-13.5 20.167 -13.5 33.5v876c0 13.333 4.5 24.5 13.5 33.5s20.167 13.5 33.5 13.5h781c13.333 0 24.5 -4.5 33.5 -13.5s13.5 -20.167 13.5 -33.5v-23h67c8 0 14.833 -2.83301 20.5 -8.5
s8.5 -12.5 8.5 -20.5v-87c0 -8 -2.83301 -14.833 -8.5 -20.5s-12.5 -8.5 -20.5 -8.5h-67z" />
    <glyph glyph-name="Compass" unicode="&#xf026;" 
d="M713 714c9.33301 -9.33301 11 -18.9971 5 -28.9971l-147 -246c-1.33301 -2.66699 -4 -5.33398 -8 -8.00098l-248 -149c-3.33301 -2 -7.33301 -3 -12 -3c-6.66699 0 -12 2.33301 -16 7l-1 1c-4 3.33301 -6.33301 7.66602 -7 12.999s0.333008 10.666 3 15.999l149 247
c2.66699 4 5.33398 6.66699 8.00098 8l246 147c4.66699 2.66699 9.66699 3.66699 15 3s9.66602 -3 12.999 -7zM500 972.003c64.667 0 125.667 -12.333 183 -37s107.5 -58.5 150.5 -101.5s76.833 -93.167 101.5 -150.5s37 -118.333 37 -183
c0 -65.333 -12.333 -126.5 -37 -183.5s-58.5 -107 -101.5 -150s-93.167 -76.833 -150.5 -101.5s-118.333 -37 -183 -37c-65.333 0 -126.5 12.333 -183.5 37s-107 58.5 -150 101.5s-76.833 93 -101.5 150s-37 118.167 -37 183.5c0 64.667 12.333 125.667 37 183
s58.5 107.5 101.5 150.5s93 76.833 150 101.5s118.167 37 183.5 37zM500 847.003c-48 0 -93 -9.16699 -135 -27.5s-78.667 -43.166 -110 -74.499s-56.166 -68 -74.499 -110s-27.5 -87 -27.5 -135s9.16699 -93 27.5 -135s43.166 -78.667 74.499 -110s68 -56.166 110 -74.499
s87 -27.5 135 -27.5s93 9.16699 135 27.5s78.667 43.166 110 74.499s56.166 68 74.499 110s27.5 87 27.5 135s-9.16699 93 -27.5 135s-43.166 78.667 -74.499 110s-68 56.166 -110 74.499s-87 27.5 -135 27.5z" />
    <glyph glyph-name="Flag" unicode="&#xf027;" 
d="M891 914c10 2.66699 18.501 2.66309 25.501 -0.00390625s12.5 -6.83398 16.5 -12.501s7 -12.334 9 -20.001s3 -15.167 3 -22.5v-363c0 -23.333 -1.83301 -39.833 -5.5 -49.5s-11.167 -18.5 -22.5 -26.5c-13.333 -9.33301 -29.833 -19.666 -49.5 -30.999
s-41.5 -21.666 -65.5 -30.999s-49.333 -16.833 -76 -22.5s-53.5 -7.66699 -80.5 -6s-53.667 7.66699 -80 18s-50.833 26.833 -73.5 49.5c-27.333 27.333 -55.333 46.5 -84 57.5s-56.667 16.833 -84 17.5s-53.333 -2.5 -78 -9.5s-46.667 -14.833 -66 -23.5v-351
c0 -17.333 -6.16699 -32 -18.5 -44s-27.166 -18 -44.499 -18s-32 6 -44 18s-18 26.667 -18 44v364v199v208c0 4.66699 7.33301 12.834 22 24.501s34 23.834 58 36.501s51.333 24.167 82 34.5s62.167 16.666 94.5 18.999s64.166 -0.666992 95.499 -9
s59.666 -25.166 84.999 -50.499s51.833 -43.166 79.5 -53.499s55.167 -15.666 82.5 -15.999s53.833 2.66699 79.5 9s49 13.833 70 22.5s39.167 16.667 54.5 24s26.333 12 33 14z" />
    <glyph glyph-name="Location" unicode="&#xf028;" 
d="M854 610l1.00098 0.00195312c-0.666992 -1.33301 -1 -4 -1 -8v-5c-0.666992 -10 -1.66699 -20.167 -3 -30.5s-3 -20.5 -5 -30.5c-2.66699 -13.333 -9.5 -32.333 -20.5 -57s-24.667 -52 -41 -82l-52.5 -93l-54 -89c-17.333 -27.333 -32.833 -50.833 -46.5 -70.5
s-23.167 -32.5 -28.5 -38.5c-8.66699 -8.66699 -18 -17.167 -28 -25.5s-19.667 -15.833 -29 -22.5s-17.833 -12 -25.5 -16s-12.834 -6 -15.501 -6c-3.33301 0 -8.66602 2 -15.999 6s-15.833 9.5 -25.5 16.5s-19.5 14.667 -29.5 23s-19 16.5 -27 24.5
c-5.33301 5.33301 -14.666 17.833 -27.999 37.5l-46 70.5l-54.5 89c-19 32 -36.5 63.167 -52.5 93.5s-29.833 57.833 -41.5 82.5s-18.5 43.667 -20.5 57c-2 10 -3.66699 20.167 -5 30.5s-2.33301 20.5 -3 30.5v5c0 1.33301 -0.166992 2.66602 -0.5 3.99902
s-0.5 2.66602 -0.5 3.99902v1c0 48 9.16699 93.333 27.5 136s43.166 79.834 74.499 111.501s68.333 56.834 111 75.501s88 28 136 28h1h1c48 0 93.333 -9.33301 136 -28s79.667 -43.834 111 -75.501s56.166 -68.834 74.499 -111.501s27.5 -88 27.5 -136
c-0.666992 0 -1 -0.333008 -1 -1zM645.001 615.002c0 19.333 -3.66699 37.666 -11 54.999s-17.333 32.333 -30 45s-27.667 22.667 -45 30s-35.666 11 -54.999 11s-37.666 -3.66699 -54.999 -11s-32.333 -17.333 -45 -30s-22.667 -27.667 -30 -45s-11 -35.666 -11 -54.999
s3.66699 -37.666 11 -54.999s17.333 -32.5 30 -45.5s27.667 -23.167 45 -30.5s35.666 -11 54.999 -11s37.666 3.66699 54.999 11s32.333 17.5 45 30.5s22.667 28.167 30 45.5s11 35.666 11 54.999z" />
    <glyph glyph-name="Clock" unicode="&#xf029;" 
d="M741 675c5.33301 -4.66699 8 -10.333 8 -17s-2.66699 -12.667 -8 -18l-223 -223c-4 -4.66699 -9.66699 -7 -17 -7h-1c-7.33301 0 -13.333 2.33301 -18 7l-152 152c-4.66699 4.66699 -7 10.667 -7 18s2.33301 13.333 7 18l49 49c4.66699 4.66699 10.5 7 17.5 7
s12.833 -2.33301 17.5 -7l86 -87l157 157c4.66699 4.66699 10.5 7.16699 17.5 7.5s12.833 -2.16699 17.5 -7.5l49 -49v0zM500 972.001c64.667 0 125.667 -12.333 183 -37s107.5 -58.5 150.5 -101.5s76.833 -93.167 101.5 -150.5s37 -118.333 37 -183
c0 -65.333 -12.333 -126.5 -37 -183.5s-58.5 -107 -101.5 -150s-93.167 -76.833 -150.5 -101.5s-118.333 -37 -183 -37c-65.333 0 -126.5 12.333 -183.5 37s-107 58.5 -150 101.5s-76.833 93 -101.5 150s-37 118.167 -37 183.5c0 64.667 12.333 125.667 37 183
s58.5 107.5 101.5 150.5s93 76.833 150 101.5s118.167 37 183.5 37zM500 847.001c-48 0 -93 -9.16699 -135 -27.5s-78.667 -43.166 -110 -74.499s-56.166 -68 -74.499 -110s-27.5 -87 -27.5 -135s9.16699 -93 27.5 -135s43.166 -78.667 74.499 -110s68 -56.166 110 -74.499
s87 -27.5 135 -27.5s93 9.16699 135 27.5s78.667 43.166 110 74.499s56.166 68 74.499 110s27.5 87 27.5 135s-9.16699 93 -27.5 135s-43.166 78.667 -74.499 110s-68 56.166 -110 74.499s-87 27.5 -135 27.5z" />
    <glyph glyph-name="Folder" unicode="&#xf02a;" 
d="M925 804c17.333 0 32.334 -6.33203 45.001 -18.999s19 -27.667 19 -45v-567c0 -18 -6.33301 -33.333 -19 -46s-27.667 -19 -45 -19h-846c-18 0 -33.333 6.33301 -46 19s-19 28 -19 46v567c0 17.333 6.33301 32.333 19 45s28 19 46 19h69l59 74c8 9.33301 17.667 14 29 14
h171c15.333 0 26.333 -7.33301 33 -22c3.33301 -4.66699 10.166 -13.334 20.499 -26.001l33.5 -40h431v0z" />
    <glyph glyph-name="Inbox" unicode="&#xf02b;" horiz-adv-x="1002" 
d="M313 729c-4 6 -4.33398 11.667 -1.00098 17c3.33301 6.66699 8.33301 10 15 10h81v218c0 4.66699 1.66699 8.5 5 11.5s7.33301 4.5 12 4.5h150c11.333 0 17 -5.33301 17 -16v-218h81c6.66699 0 11.667 -3 15 -9c3.33301 -6.66699 3 -12.667 -1 -18l-173 -243
c-3.33301 -4.66699 -7.66602 -7 -12.999 -7c-6 0 -10.667 2.33301 -14 7l-174 243v0zM937.999 481c17.333 0 32.001 -6.16699 44.001 -18.5s18 -27.166 18 -44.499v-356c0 -17.333 -6 -32 -18 -44s-26.667 -18 -44 -18h-876c-17.333 0 -32 6 -44 18s-18 26.667 -18 44v356
c0 17.333 6 32.166 18 44.499s26.667 18.5 44 18.5h222c14 0 26.5 -4 37.5 -12s18.5 -18.667 22.5 -32c11.333 -34 31.166 -61.5 59.499 -82.5s60.5 -31.5 96.5 -31.5s68.333 10.5 97 31.5s48.667 48.5 60 82.5c4 13.333 11.5 24 22.5 32s23.167 12 36.5 12h222v0z" />
    <glyph glyph-name="Website" unicode="&#xf02c;" 
d="M582 232h-166v166h166v-166zM792 232h-166v166h166v-166zM372 232h-166v166h166v-166zM792 757h-586v-306h586v306zM876 845h-752v-690h752v690zM62 33c-16.667 0 -31 5.83301 -43 17.5s-18 26.167 -18 43.5v812c0 17.333 6 31.833 18 43.5s26.333 17.5 43 17.5h876
c16.667 0 31 -5.83301 43 -17.5s18 -26.167 18 -43.5v-812c0 -17.333 -6 -31.833 -18 -43.5s-26.333 -17.5 -43 -17.5h-876z" />
    <glyph glyph-name="Smiley" unicode="&#xf02d;" 
d="M501 150c44.667 0 86.668 8.5 126.001 25.5s73.666 40 102.999 69s52.5 63 69.5 102s25.5 80.833 25.5 125.5h-647c0 -44.667 8.5 -86.5 25.5 -125.5s40.167 -73 69.5 -102s63.5 -52 102.5 -69s80.833 -25.5 125.5 -25.5zM340.001 788c-28 0 -51.667 -9.66699 -71 -29
s-29 -43 -29 -71c0 -14 2.66699 -27.167 8 -39.5s12.5 -23 21.5 -32s19.5 -16.167 31.5 -21.5s25 -8 39 -8s27.167 2.66699 39.5 8s23 12.5 32 21.5s16.167 19.667 21.5 32s8 25.5 8 39.5s-2.66699 27 -8 39s-12.5 22.5 -21.5 31.5s-19.667 16.167 -32 21.5s-25.5 8 -39.5 8
zM653.001 788c-28 0 -51.667 -9.66699 -71 -29s-29 -43 -29 -71c0 -14 2.66699 -27.167 8 -39.5s12.5 -23 21.5 -32s19.5 -16.167 31.5 -21.5s25 -8 39 -8s27.167 2.66699 39.5 8s23 12.5 32 21.5s16.167 19.667 21.5 32s8 25.5 8 39.5s-2.66699 27 -8 39
s-12.5 22.5 -21.5 31.5s-19.667 16.167 -32 21.5s-25.5 8 -39.5 8zM913.001 965c15.333 0 28.166 -5.16699 38.499 -15.5s15.5 -22.833 15.5 -37.5v-824c0 -14.667 -5.16699 -27.167 -15.5 -37.5s-23.166 -15.5 -38.499 -15.5h-824c-14.667 0 -27.167 5.16699 -37.5 15.5
s-15.5 22.833 -15.5 37.5v824c0 14.667 5.16699 27.167 15.5 37.5s22.833 15.5 37.5 15.5h824v0z" />
    <glyph glyph-name="Search" unicode="&#xf02e;" 
d="M722 428c20.667 20.667 36.167 44 46.5 70s15.5 52.5 15.5 79.5s-5.16699 53.667 -15.5 80s-25.833 49.833 -46.5 70.5s-44 36 -70 46s-52.667 15 -80 15s-54 -5 -80 -15s-49.333 -25.333 -70 -46s-36.167 -44.167 -46.5 -70.5s-15.5 -53 -15.5 -80
s5.16699 -53.5 15.5 -79.5s25.833 -49.333 46.5 -70s44 -36.167 70 -46.5s52.667 -15.5 80 -15.5s54 5.16699 80 15.5s49.333 25.833 70 46.5zM842 848c37.333 -37.333 65.333 -79.501 84 -126.501s28 -94.833 28 -143.5s-9.33301 -96.5 -28 -143.5
s-46.667 -89.167 -84 -126.5c-30 -30 -63.333 -54 -100 -72s-74.667 -30 -114 -36s-78.833 -5.66699 -118.5 1s-77.5 19.334 -113.5 38.001l-172 -172c-10 -10 -21 -17.333 -33 -22s-24.5 -7 -37.5 -7s-25.5 2.33301 -37.5 7s-23 12 -33 22s-17.333 21 -22 33
s-7 24.5 -7 37.5s2.33301 25.5 7 37.5s12 23 22 33l166 166c-23.333 36.667 -39.666 76 -48.999 118s-11.833 84 -7.5 126s15.666 82.833 33.999 122.5s43.5 75.5 75.5 107.5c37.333 36.667 79.5 64.334 126.5 83.001s94.833 28 143.5 28s96.5 -9.33301 143.5 -28
s89.167 -46.334 126.5 -83.001z" />
  </font>
</defs>
</svg>
